HIERARCHY
ROOT Hips
{
	OFFSET 0.000000 100.481300 0.000000
	CHANNELS 6 Xposition Yposition Zposition Xrotation Yrotation Zrotation 
	JOINT Spine
	{
		OFFSET -0.279200 12.230698 -2.892100
		CHANNELS 3 Xrotation Yrotation Zrotation
		JOINT Spine1
		{
			OFFSET -0.232667 10.192268 -1.242267
			CHANNELS 3 Xrotation Yrotation Zrotation
			JOINT Spine1_split
			{
				OFFSET -0.232667 10.192268 -1.242267
				CHANNELS 3 Xrotation Yrotation Zrotation
				JOINT Spine2
				{
					OFFSET -0.232667 10.192268 -1.242267
					CHANNELS 3 Xrotation Yrotation Zrotation
					JOINT Neck
					{
						OFFSET -0.418800 17.814194 8.416900
						CHANNELS 3 Xrotation Yrotation Zrotation
						JOINT Head
						{
							OFFSET 0.000000 7.031097 3.806800
							CHANNELS 3 Xrotation Yrotation Zrotation
							JOINT HeadTop_End
							{
								OFFSET 0.000000 24.646606 12.978600
								CHANNELS 3 Xrotation Yrotation Zrotation
								End Site
								{
									OFFSET 0.000000 0.000000 0.000000
								}
							}
						}
					}
					JOINT LeftShoulder
					{
						OFFSET 8.476499 7.247704 -3.868750
						CHANNELS 3 Xrotation Yrotation Zrotation
						JOINT LeftShoulder_split
						{
							OFFSET 8.476499 7.247704 -3.868750
							CHANNELS 3 Xrotation Yrotation Zrotation
							JOINT LeftArm
							{
								OFFSET 9.308998 -2.777710 0.208600
								CHANNELS 3 Xrotation Yrotation Zrotation
								JOINT LeftForeArm
								{
									OFFSET 29.972298 0.000000 0.000000
									CHANNELS 3 Xrotation Yrotation Zrotation
									JOINT LeftHand
									{
										OFFSET 26.026505 0.000000 0.000000
										CHANNELS 3 Xrotation Yrotation Zrotation
										JOINT LeftHandThumb1
										{
											OFFSET 12.240501 -7.147949 9.207150
											CHANNELS 3 Xrotation Yrotation Zrotation
											JOINT LeftHandThumb2
											{
												OFFSET 4.138618 -2.389435 2.389433
												CHANNELS 3 Xrotation Yrotation Zrotation
												JOINT LeftHandThumb3
												{
													OFFSET 2.726913 -1.574387 1.574386
													CHANNELS 3 Xrotation Yrotation Zrotation
													JOINT LeftHandThumb4
													{
														OFFSET 3.941010 -2.275345 2.275342
														CHANNELS 3 Xrotation Yrotation Zrotation
														End Site
														{
															OFFSET 0.000000 0.000000 0.000000
														}
													}
												}
											}
										}
										JOINT LeftHandIndex1
										{
											OFFSET 24.424698 -1.985611 5.953459
											CHANNELS 3 Xrotation Yrotation Zrotation
											JOINT LeftHandIndex2
											{
												OFFSET 6.426697 0.000000 0.000000
												CHANNELS 3 Xrotation Yrotation Zrotation
												JOINT LeftHandIndex3
												{
													OFFSET 5.337898 0.000000 0.000000
													CHANNELS 3 Xrotation Yrotation Zrotation
													JOINT LeftHandIndex4
													{
														OFFSET 4.409401 0.000000 0.000000
														CHANNELS 3 Xrotation Yrotation Zrotation
														End Site
														{
															OFFSET 0.000000 0.000000 0.000000
														}
													}
												}
											}
										}
										JOINT LeftHandMiddle1
										{
											OFFSET 23.810104 0.000000 0.000000
											CHANNELS 3 Xrotation Yrotation Zrotation
											JOINT LeftHandMiddle2
											{
												OFFSET 7.176498 0.000000 0.000000
												CHANNELS 3 Xrotation Yrotation Zrotation
												JOINT LeftHandMiddle3
												{
													OFFSET 6.774902 0.000000 0.000000
													CHANNELS 3 Xrotation Yrotation Zrotation
													JOINT LeftHandMiddle4
													{
														OFFSET 5.403328 0.000000 0.000000
														CHANNELS 3 Xrotation Yrotation Zrotation
														End Site
														{
															OFFSET 0.000000 0.000000 0.000000
														}
													}
												}
											}
										}
										JOINT LeftHandRing1
										{
											OFFSET 22.908401 -0.839279 -6.020567
											CHANNELS 3 Xrotation Yrotation Zrotation
											JOINT LeftHandRing2
											{
												OFFSET 6.337502 0.000000 0.000000
												CHANNELS 3 Xrotation Yrotation Zrotation
												JOINT LeftHandRing3
												{
													OFFSET 5.779297 0.000000 0.000000
													CHANNELS 3 Xrotation Yrotation Zrotation
													JOINT LeftHandRing4
													{
														OFFSET 4.965698 0.000000 0.000000
														CHANNELS 3 Xrotation Yrotation Zrotation
														End Site
														{
															OFFSET 0.000000 0.000000 0.000000
														}
													}
												}
											}
										}
										JOINT LeftHandPinky1
										{
											OFFSET 20.037003 -1.530319 -10.950146
											CHANNELS 3 Xrotation Yrotation Zrotation
											JOINT LeftHandPinky2
											{
												OFFSET 5.254700 0.000000 0.000000
												CHANNELS 3 Xrotation Yrotation Zrotation
												JOINT LeftHandPinky3
												{
													OFFSET 4.810204 0.000000 0.000000
													CHANNELS 3 Xrotation Yrotation Zrotation
													JOINT LeftHandPinky4
													{
														OFFSET 3.647202 0.000000 0.000000
														CHANNELS 3 Xrotation Yrotation Zrotation
														End Site
														{
															OFFSET 0.000000 0.000000 0.000000
														}
													}
												}
											}
										}
									}
								}
							}
						}
					}
					JOINT RightShoulder
					{
						OFFSET -7.570500 7.247704 -3.868750
						CHANNELS 3 Xrotation Yrotation Zrotation
						JOINT RightShoulder_split
						{
							OFFSET -7.570500 7.247704 -3.868750
							CHANNELS 3 Xrotation Yrotation Zrotation
							JOINT RightArm
							{
								OFFSET -9.308998 -2.777710 0.208500
								CHANNELS 3 Xrotation Yrotation Zrotation
								JOINT RightForeArm
								{
									OFFSET -29.972300 0.000000 0.000000
									CHANNELS 3 Xrotation Yrotation Zrotation
									JOINT RightHand
									{
										OFFSET -26.026505 0.000000 0.000000
										CHANNELS 3 Xrotation Yrotation Zrotation
										JOINT RightHandThumb1
										{
											OFFSET -12.240601 -7.148026 9.207092
											CHANNELS 3 Xrotation Yrotation Zrotation
											JOINT RightHandThumb2
											{
												OFFSET -4.138618 -2.389435 2.389433
												CHANNELS 3 Xrotation Yrotation Zrotation
												JOINT RightHandThumb3
												{
													OFFSET -2.726974 -1.574417 1.574421
													CHANNELS 3 Xrotation Yrotation Zrotation
													JOINT RightHandThumb4
													{
														OFFSET -3.941010 -2.275345 2.275343
														CHANNELS 3 Xrotation Yrotation Zrotation
														End Site
														{
															OFFSET 0.000000 0.000000 0.000000
														}
													}
												}
											}
										}
										JOINT RightHandIndex1
										{
											OFFSET -24.424698 -1.985657 5.953444
											CHANNELS 3 Xrotation Yrotation Zrotation
											JOINT RightHandIndex2
											{
												OFFSET -6.426697 0.000000 0.000000
												CHANNELS 3 Xrotation Yrotation Zrotation
												JOINT RightHandIndex3
												{
													OFFSET -5.337898 0.000000 0.000000
													CHANNELS 3 Xrotation Yrotation Zrotation
													JOINT RightHandIndex4
													{
														OFFSET -4.409401 0.000000 0.000000
														CHANNELS 3 Xrotation Yrotation Zrotation
														End Site
														{
															OFFSET 0.000000 0.000000 0.000000
														}
													}
												}
											}
										}
										JOINT RightHandMiddle1
										{
											OFFSET -23.810097 0.000000 0.000000
											CHANNELS 3 Xrotation Yrotation Zrotation
											JOINT RightHandMiddle2
											{
												OFFSET -7.176498 0.000000 0.000000
												CHANNELS 3 Xrotation Yrotation Zrotation
												JOINT RightHandMiddle3
												{
													OFFSET -6.774902 0.000000 0.000000
													CHANNELS 3 Xrotation Yrotation Zrotation
													JOINT RightHandMiddle4
													{
														OFFSET -5.403328 0.000000 0.000000
														CHANNELS 3 Xrotation Yrotation Zrotation
														End Site
														{
															OFFSET 0.000000 0.000000 0.000000
														}
													}
												}
											}
										}
										JOINT RightHandRing1
										{
											OFFSET -22.908302 -0.839325 -6.020576
											CHANNELS 3 Xrotation Yrotation Zrotation
											JOINT RightHandRing2
											{
												OFFSET -6.337502 0.000000 0.000000
												CHANNELS 3 Xrotation Yrotation Zrotation
												JOINT RightHandRing3
												{
													OFFSET -5.779297 0.000000 0.000000
													CHANNELS 3 Xrotation Yrotation Zrotation
													JOINT RightHandRing4
													{
														OFFSET -4.965698 0.000000 0.000000
														CHANNELS 3 Xrotation Yrotation Zrotation
														End Site
														{
															OFFSET 0.000000 0.000000 0.000000
														}
													}
												}
											}
										}
										JOINT RightHandPinky1
										{
											OFFSET -20.037003 -1.530334 -10.950259
											CHANNELS 3 Xrotation Yrotation Zrotation
											JOINT RightHandPinky2
											{
												OFFSET -5.254700 0.000000 0.000000
												CHANNELS 3 Xrotation Yrotation Zrotation
												JOINT RightHandPinky3
												{
													OFFSET -4.810204 0.000000 0.000000
													CHANNELS 3 Xrotation Yrotation Zrotation
													JOINT RightHandPinky4
													{
														OFFSET -3.647202 0.000000 0.000000
														CHANNELS 3 Xrotation Yrotation Zrotation
														End Site
														{
															OFFSET 0.000000 0.000000 0.000000
														}
													}
												}
											}
										}
									}
								}
							}
						}
					}
				}
			}
		}
	}
	JOINT LeftUpLeg
	{
		OFFSET 15.427100 -6.655098 0.678600
		CHANNELS 3 Xrotation Yrotation Zrotation
		JOINT LeftLeg
		{
			OFFSET 4.081073 -39.591068 13.024000
			CHANNELS 3 Xrotation Yrotation Zrotation
			JOINT LeftFoot
			{
				OFFSET -4.081074 -37.707932 -15.979700
				CHANNELS 3 Xrotation Yrotation Zrotation
				JOINT LeftToeBase
				{
					OFFSET 5.346399 -15.068900 20.645000
					CHANNELS 3 Xrotation Yrotation Zrotation
					JOINT LeftToe_End
					{
						OFFSET 2.754700 0.931300 11.300900
						CHANNELS 3 Xrotation Yrotation Zrotation
						End Site
						{
							OFFSET 0.000000 0.000000 0.000000
						}
					}
				}
			}
		}
	}
	JOINT RightUpLeg
	{
		OFFSET -15.569500 -6.655098 0.678600
		CHANNELS 3 Xrotation Yrotation Zrotation
		JOINT RightLeg
		{
			OFFSET -4.081825 -39.591045 13.023800
			CHANNELS 3 Xrotation Yrotation Zrotation
			JOINT RightFoot
			{
				OFFSET 4.081824 -37.707954 -15.979600
				CHANNELS 3 Xrotation Yrotation Zrotation
				JOINT RightToeBase
				{
					OFFSET -5.346400 -15.068900 20.645000
					CHANNELS 3 Xrotation Yrotation Zrotation
					JOINT RightToe_End
					{
						OFFSET -2.754700 0.931300 11.300900
						CHANNELS 3 Xrotation Yrotation Zrotation
						End Site
						{
							OFFSET 0.000000 0.000000 0.000000
						}
					}
				}
			}
		}
	}
}
MOTION
Frames: 4
Frame Time: 0.016667
7.794384 96.331406 -1.309294 0.024737 -13.942644 -2.918907 1.275154 -1.109481 -1.243815 0.247989 -0.899456 -0.732542 0.000000 0.000000 0.000000 0.243785 -0.917157 -0.703879 0.749591 2.295818 1.468096 -1.250656 13.693912 -1.535067 -0.000000 0.000000 0.000000 -1.488744 9.670789 -3.001459 0.000000 0.000000 0.000000 40.860490 -60.704829 -25.987203 0.000005 -22.817345 0.000001 -25.332876 2.522398 11.628336 -3.405736 19.076291 14.453261 15.249470 14.620650 -5.800669 4.892155 5.223028 0.075635 0.000001 -0.000002 -0.000002 0.380314 2.260834 -19.095158 0.158444 1.471496 -12.290088 0.039716 0.740001 -6.144018 -0.000000 -0.000000 0.000000 0.379682 2.259006 -19.079140 0.158853 1.473387 -12.306104 0.039716 0.740002 -6.144020 -0.000001 0.000001 0.000001 0.380314 2.260834 -19.095156 0.158444 1.471497 -12.290085 0.039717 0.739995 -6.144019 0.000002 0.000000 0.000000 1.695999 6.096986 -18.680649 0.153594 -2.584205 -12.789182 0.039717 0.740002 -6.144016 -0.000001 -0.000002 -0.000001 4.389557 5.095590 -14.946397 0.000000 0.000000 0.000000 -41.397855 -19.780020 36.650833 0.000091 107.697692 -0.000082 -54.775303 -10.060502 16.832153 -38.571851 8.421444 28.523227 20.647206 -5.709678 -0.778461 6.673656 1.573244 -3.478670 -0.000000 -0.000002 -0.000001 6.266113 -6.914839 84.352344 5.176775 -6.719693 75.194782 1.436820 -4.237649 37.445344 -0.000002 -0.000001 -0.000001 6.266114 -6.914838 84.352351 5.176781 -6.719696 75.194775 1.436814 -4.237657 37.445348 -0.000000 0.000002 0.000004 6.266108 -6.914840 84.352344 5.176781 -6.719698 75.194775 1.436815 -4.237657 37.445344 0.000002 -0.000002 -0.000002 6.266113 -6.914839 84.352351 5.176786 -6.719704 75.194775 1.436817 -4.237647 37.445351 0.000002 0.000003 -0.000004 -11.401796 21.801412 9.802944 20.272312 8.978486 4.942232 -8.974786 8.508583 -9.317386 0.000002 -0.000006 0.000002 -0.000000 0.000001 0.000000 -14.429857 -18.645692 -7.309894 12.661273 9.313032 -3.233738 -0.057552 8.246786 8.775932 -0.000001 0.000002 0.000002 0.000000 0.000000 -0.000000 
7.615931 96.325119 -1.306678 0.039671 -13.756644 -2.894764 1.277412 -1.096682 -1.187880 0.244306 -0.890372 -0.689607 0.000000 0.000000 0.000000 0.239954 -0.906836 -0.661085 0.708956 2.285036 1.414968 -1.291728 13.566502 -1.516493 0.000000 0.000000 0.000000 -1.481852 9.673275 -3.066329 0.000000 0.000000 0.000000 40.859646 -60.864594 -25.969267 -0.000013 -22.750785 0.000005 -25.272315 2.521557 11.564784 -3.405738 19.076291 14.453259 15.249473 14.620655 -5.800669 4.892158 5.223029 0.075634 0.000002 -0.000001 0.000000 0.380317 2.260834 -19.095155 0.158446 1.471497 -12.290089 0.039717 0.739999 -6.144019 -0.000003 -0.000001 -0.000002 0.379684 2.259009 -19.079136 0.158856 1.473383 -12.306102 0.039714 0.740004 -6.144020 0.000001 0.000000 0.000001 0.380317 2.260834 -19.095153 0.158445 1.471497 -12.290086 0.039717 0.739996 -6.144018 -0.000001 -0.000000 0.000000 1.696001 6.096985 -18.680651 0.153592 -2.584206 -12.789182 0.039716 0.740002 -6.144014 -0.000003 -0.000000 -0.000000 4.393043 5.145398 -14.614279 0.000000 0.000000 0.000000 -40.060050 -18.545347 36.976909 0.000032 107.194150 -0.000043 -53.879449 -10.236984 17.000802 -38.575454 8.422876 28.525109 25.307311 -7.950544 -1.561555 8.978155 0.451528 -4.203934 -0.000002 0.000000 0.000001 5.616234 -6.819979 78.921142 4.647606 -6.558051 70.620051 1.273539 -4.016037 35.176803 0.000000 0.000001 -0.000000 5.616234 -6.819978 78.921142 4.647610 -6.558055 70.620058 1.273534 -4.016041 35.176796 -0.000001 0.000000 0.000002 5.616234 -6.819981 78.921142 4.647614 -6.558057 70.620065 1.273543 -4.016038 35.176803 -0.000001 -0.000000 0.000000 5.616234 -6.819979 78.921142 4.647618 -6.558063 70.620058 1.273542 -4.016034 35.176799 0.000001 -0.000001 -0.000002 -11.457173 21.724726 9.917185 20.259207 8.963307 4.922207 -8.888093 8.419343 -9.413218 0.000002 -0.000010 0.000002 0.000000 -0.000001 -0.000000 -14.345928 -18.535117 -7.276714 12.765264 9.319106 -3.087469 -0.191147 7.927649 8.603768 -0.000003 -0.000010 0.000003 -0.000000 0.000002 -0.000000 
7.433468 96.321327 -1.304559 0.048662 -13.572429 -2.878301 1.281817 -1.088209 -1.130478 0.241808 -0.884487 -0.647217 0.000000 0.000000 0.000000 0.237302 -0.899711 -0.618708 0.663438 2.273469 1.368833 -1.324471 13.444067 -1.498670 -0.000000 0.000000 0.000000 -1.475811 9.676773 -3.126219 0.000000 0.000000 0.000000 40.863465 -61.027631 -25.944137 0.000003 -22.683956 0.000014 -25.239991 2.530284 11.484742 -3.405739 19.076291 14.453257 15.249466 14.620652 -5.800668 4.892158 5.223026 0.075631 0.000000 0.000003 0.000001 0.380311 2.260832 -19.095151 0.158442 1.471496 -12.290085 0.039716 0.740000 -6.144021 0.000000 -0.000001 -0.000000 0.379679 2.259008 -19.079138 0.158854 1.473384 -12.306100 0.039721 0.740005 -6.144020 -0.000000 0.000001 0.000001 0.380311 2.260832 -19.095153 0.158441 1.471495 -12.290083 0.039714 0.739996 -6.144019 0.000001 0.000001 0.000001 1.695998 6.096982 -18.680649 0.153589 -2.584206 -12.789181 0.039716 0.740003 -6.144016 -0.000003 -0.000001 -0.000001 4.393939 5.191678 -14.254577 0.000000 0.000000 0.000000 -38.714796 -17.278386 37.271881 0.000031 106.679611 -0.000042 -53.035326 -10.392672 17.074691 -38.565639 8.418996 28.520015 29.758192 -10.003504 -1.882579 11.181017 -0.630449 -4.665770 -0.000000 -0.000003 0.000001 4.775622 -6.601396 71.737067 4.103757 -6.341907 65.781429 1.110488 -3.774653 32.777016 -0.000002 0.000001 -0.000000 4.775622 -6.601395 71.737067 4.103761 -6.341910 65.781429 1.110483 -3.774657 32.777012 -0.000001 0.000001 -0.000001 4.775622 -6.601396 71.737067 4.103759 -6.341912 65.781429 1.110485 -3.774654 32.777012 0.000001 -0.000000 0.000001 4.775622 -6.601396 71.737067 4.103762 -6.341916 65.781429 1.110486 -3.774650 32.777016 0.000001 0.000000 -0.000001 -11.503905 21.635263 10.045939 20.241088 8.949002 4.888831 -8.798371 8.331664 -9.508463 0.000002 -0.000009 0.000002 -0.000000 0.000001 0.000000 -14.251450 -18.441132 -7.217628 12.865108 9.324168 -2.972668 -0.325106 7.622108 8.441231 -0.000003 -0.000008 0.000000 -0.000000 0.000001 0.000000 
7.247780 96.320572 -1.303316 0.047145 -13.390105 -2.870517 1.288098 -1.084313 -1.073075 0.240360 -0.881939 -0.605871 0.000000 0.000000 0.000000 0.235707 -0.895956 -0.577245 0.611920 2.260318 1.331698 -1.350458 13.324902 -1.480447 -0.000000 -0.000000 -0.000000 -1.470858 9.679991 -3.176226 0.000000 0.000000 0.000000 40.866152 -61.194895 -25.918671 -0.000006 -22.613882 -0.000021 -25.231065 2.553773 11.386501 -3.405738 19.076293 14.453254 15.249473 14.620655 -5.800671 4.892156 5.223032 0.075639 0.000001 -0.000002 -0.000001 0.380312 2.260834 -19.095158 0.158441 1.471496 -12.290090 0.039721 0.740000 -6.144020 0.000001 -0.000000 -0.000000 0.379682 2.259007 -19.079141 0.158859 1.473384 -12.306100 0.039717 0.740005 -6.144020 0.000001 -0.000001 -0.000001 0.380312 2.260834 -19.095158 0.158440 1.471497 -12.290086 0.039709 0.739995 -6.144020 -0.000001 -0.000000 0.000001 1.695999 6.096985 -18.680649 0.153594 -2.584207 -12.789182 0.039720 0.740002 -6.144016 -0.000003 -0.000001 -0.000000 4.391628 5.233463 -13.862314 0.000000 0.000000 0.000000 -37.354984 -15.971178 37.525923 0.000133 106.153427 -0.000131 -52.233629 -10.519486 17.034885 -38.310405 8.317376 28.387226 33.606020 -11.676491 -1.838695 13.081534 -1.576551 -4.879226 0.000001 0.000002 0.000001 3.866131 -6.230258 63.611498 3.573345 -6.077064 60.880673 0.955708 -3.523186 30.345472 -0.000001 0.000000 -0.000001 3.866132 -6.230257 63.611498 3.573348 -6.077067 60.880679 0.955703 -3.523192 30.345468 -0.000001 -0.000002 -0.000002 3.866128 -6.230256 63.611498 3.573347 -6.077074 60.880679 0.955707 -3.523187 30.345472 -0.000000 -0.000002 -0.000001 3.866131 -6.230258 63.611498 3.573352 -6.077074 60.880679 0.955704 -3.523185 30.345479 -0.000000 0.000000 -0.000000 -11.539219 21.536025 10.184604 20.217519 8.935126 4.852938 -8.702435 8.242513 -9.607850 0.000002 -0.000010 0.000002 -0.000000 0.000002 0.000000 -14.138503 -18.351986 -7.135045 12.956546 9.328240 -2.879990 -0.457162 7.319898 8.285539 -0.000002 0.000003 -0.000002 -0.000000 0.000002 -0.000000 
